<?xml version="1.0" encoding="iso-8859-1"?>
<!-- Uploaded to: SVG Repo, www.svgrepo.com, Generator: SVG Repo Mixer Tools -->
<svg fill="#000000" height="800px" width="800px" version="1.1" id="Layer_1" xmlns="http://www.w3.org/2000/svg" xmlns:xlink="http://www.w3.org/1999/xlink" 
	 viewBox="0 0 503.609 503.609" xml:space="preserve">
<g>
	<g>
		<g>
			<path d="M432.382,51.557L348.448,1.197c-2.468-1.486-5.515-1.586-8.074-0.311c-2.568,1.284-4.306,3.802-4.591,6.656
				l-8.561,82.709c-34.791-6.018-76.103-6.312-83.808-6.312c-30.938,0-60.29,2.224-83.641,6.278
				c-8.981-13.858-24.551-23.065-42.261-23.065c-27.774,0-50.361,22.587-50.361,50.361c0,27.27,21.806,49.505,48.9,50.285
				l10.106,72.41l16.56,13.48c17.744,15.293,52.501,23.3,100.696,23.3c57.487,0,90.951-15.209,100.621-23.241l16.972-15.998
				l16.384-117.424c0.21-0.906,0.319-1.847,0.319-2.812c0-11.306-14.479-18.801-33.951-23.779l7.386-71.353l72.603,43.57
				c3.962,2.384,9.124,1.1,11.516-2.879C437.645,59.103,436.361,53.941,432.382,51.557z M150.312,124.127
				c-0.076,0.319-0.117,0.638-0.193,0.957c-0.059,0.227-0.176,0.445-0.235,0.663c-18.063-4.18-23.006-8.2-24.047-9.275l-0.017-0.126
				c-0.613-4.365-4.558-7.42-8.897-7.218c-4.398,0.319-7.806,3.97-7.806,8.385c0,0.965,0.101,1.905,0.311,2.812l0.05,0.386v0.034
				l2.367,16.921l1.838,13.203c-16.72-1.897-29.746-16.141-29.746-33.356c0-18.524,15.058-33.574,33.574-33.574
				c13.329,0,24.777,7.865,30.191,19.162c0.008,0.017,0.008,0.034,0.017,0.059c2.233,4.675,3.366,9.501,3.366,14.353
				C151.084,119.72,150.782,121.928,150.312,124.127z M323.267,128.466c-0.504,0.084-0.99,0.176-1.502,0.26
				c-1.091,0.176-2.182,0.361-3.324,0.537c-1.561,0.235-3.19,0.47-4.835,0.697c-1.2,0.168-2.401,0.336-3.643,0.495
				c-1.729,0.218-3.525,0.428-5.338,0.638c-1.293,0.143-2.56,0.294-3.895,0.436c-1.872,0.193-3.836,0.378-5.8,0.554
				c-1.393,0.126-2.761,0.26-4.197,0.378c-2.048,0.168-4.188,0.311-6.32,0.462c-1.469,0.101-2.896,0.21-4.407,0.302
				c-2.258,0.143-4.625,0.252-6.975,0.361c-1.502,0.076-2.963,0.159-4.507,0.218c-2.577,0.101-5.271,0.168-7.957,0.243
				c-1.427,0.034-2.795,0.092-4.247,0.117c-4.188,0.084-8.486,0.134-12.909,0.134c-3.995,0-7.839-0.05-11.633-0.117
				c-2.165-0.042-4.314-0.101-6.455-0.168c-1.335-0.034-2.669-0.076-3.979-0.118c-2.929-0.101-5.833-0.227-8.704-0.369
				c-0.176-0.008-0.344-0.017-0.52-0.025c-16.594-0.865-32.097-2.409-45.627-4.566c0.017-0.076,0.025-0.143,0.042-0.218
				c0.294-1.251,0.487-2.51,0.68-3.769c0.092-0.604,0.243-1.209,0.311-1.813c0.227-1.863,0.344-3.743,0.344-5.624
				c0-1.914-0.134-3.794-0.344-5.649c-0.017-0.151-0.042-0.294-0.067-0.445c-0.218-1.813-0.546-3.592-0.948-5.338
				c21.747-3.475,48.615-5.355,76.901-5.355c35.135,0,62.531,2.703,82.088,6.194L323.267,128.466z M359.905,117.488
				c-0.067,0.05-0.101,0.101-0.176,0.159c-0.235,0.168-0.546,0.353-0.823,0.537c-0.386,0.243-0.764,0.487-1.234,0.747
				c-0.344,0.185-0.755,0.369-1.133,0.562c-0.537,0.26-1.083,0.529-1.704,0.797c-0.445,0.193-0.94,0.386-1.427,0.579
				c-0.688,0.277-1.402,0.554-2.182,0.831c-0.546,0.201-1.133,0.395-1.729,0.596c-0.839,0.277-1.704,0.562-2.635,0.848
				c-0.655,0.201-1.343,0.394-2.04,0.596c-0.99,0.285-2.023,0.562-3.097,0.848c-0.386,0.101-0.806,0.201-1.2,0.302l1.494-14.386
				C351.209,112.93,357.219,115.423,359.905,117.488z"/>
			<path d="M224.122,384.05l25.634-25.634c2.745-2.745,2.745-7.227,0-9.971l-25.634-25.642c-1.377-1.377-3.181-2.065-4.994-2.065
				c-1.805,0-3.609,0.688-4.986,2.065l-25.634,25.642c-2.745,2.745-2.745,7.227,0,9.971l25.634,25.634
				C216.886,386.795,221.36,386.803,224.122,384.05z"/>
			<path d="M261.535,402.886h-36.251c-3.895,0-7.059,3.164-7.059,7.059v36.243c0,3.895,3.164,7.059,7.059,7.059h36.251
				c3.886,0,7.05-3.164,7.05-7.059v-36.243C268.586,406.05,265.422,402.886,261.535,402.886z"/>
			<path d="M243.409,293.773c-53.013,0-90.523-9.157-111.473-27.212l-2.375-1.939l29.931,214.545
				c1.343,22.662,64.436,24.442,83.918,24.442c19.481,0,82.575-1.779,83.918-24.442l29.981-214.88l-2.157,2.023
				C342.653,276.726,305.571,293.773,243.409,293.773z M285.376,446.189c0,13.144-10.693,23.846-23.837,23.846h-36.26
				c-13.144,0-23.837-10.702-23.837-23.846v-36.243c0-4.39,1.276-8.444,3.341-11.977c-0.856-0.646-1.729-1.267-2.51-2.048
				l-25.634-25.634c-9.292-9.292-9.292-24.417-0.008-33.716l25.642-25.634c9.292-9.292,24.417-9.308,33.716,0l25.634,25.634
				c9.292,9.3,9.292,24.425,0.008,33.716l-15.822,15.813h15.729c13.144,0,23.837,10.693,23.837,23.846V446.189z"/>
		</g>
	</g>
</g>
</svg>