<svg xmlns="http://www.w3.org/2000/svg" xmlns:xlink="http://www.w3.org/1999/xlink" width="40" zoomAndPan="magnify" viewBox="0 0 30 30.000001" height="40" preserveAspectRatio="xMidYMid meet" version="1.0"><defs><clipPath id="f01fb94fca"><path d="M 22 11.570312 L 27.992188 11.570312 L 27.992188 17.375 L 22 17.375 Z M 22 11.570312 " clip-rule="nonzero"/></clipPath><clipPath id="6cb7caf155"><path d="M 21.460938 11.570312 L 27.992188 11.570312 L 27.992188 17.375 L 21.460938 17.375 Z M 21.460938 11.570312 " clip-rule="nonzero"/></clipPath><clipPath id="b0f20a21e8"><path d="M 1.699219 9.683594 L 20.570312 9.683594 L 20.570312 19.117188 L 1.699219 19.117188 Z M 1.699219 9.683594 " clip-rule="nonzero"/></clipPath></defs><g clip-path="url(#f01fb94fca)"><path fill="#fc7c00" d="M 22.617188 14.109375 C 22.398438 14.179688 22.644531 13.589844 22.675781 13.503906 C 22.738281 13.347656 22.820312 13.203125 22.902344 13.058594 C 23.074219 12.765625 23.273438 12.5 23.515625 12.28125 C 23.722656 12.109375 23.941406 11.945312 24.179688 11.835938 C 24.328125 11.785156 24.464844 11.699219 24.613281 11.65625 C 24.886719 11.585938 25.167969 11.570312 25.445312 11.613281 C 25.660156 11.644531 25.871094 11.703125 26.089844 11.734375 C 26.203125 11.753906 26.320312 11.777344 26.425781 11.828125 C 26.71875 11.953125 26.957031 12.203125 27.117188 12.507812 C 27.203125 12.648438 27.273438 12.800781 27.320312 12.964844 C 27.351562 13.046875 27.382812 13.125 27.402344 13.210938 C 27.488281 13.445312 27.539062 13.640625 27.460938 13.890625 C 27.359375 14.238281 26.992188 14.339844 26.71875 14.433594 C 26.4375 14.507812 26.15625 14.5625 25.867188 14.574219 C 25.644531 14.582031 25.421875 14.5625 25.195312 14.5625 C 24.832031 14.558594 24.476562 14.664062 24.109375 14.648438 C 23.839844 14.652344 23.566406 14.640625 23.304688 14.542969 C 23.148438 14.484375 22.980469 14.457031 22.847656 14.34375 C 22.765625 14.273438 22.660156 14.222656 22.617188 14.109375 Z M 27.839844 16.152344 C 27.824219 16.003906 27.730469 15.867188 27.601562 15.828125 C 27.441406 15.773438 27.277344 15.835938 27.113281 15.851562 C 26.597656 15.886719 26.078125 15.890625 25.570312 16.007812 C 25.113281 16.078125 24.660156 16.191406 24.195312 16.203125 C 23.921875 16.210938 23.652344 16.144531 23.378906 16.140625 C 23.222656 16.128906 23.070312 16.164062 22.917969 16.175781 C 22.867188 16.179688 22.820312 16.175781 22.773438 16.164062 C 22.742188 16.152344 22.710938 16.140625 22.683594 16.167969 C 22.609375 16.230469 22.5625 16.40625 22.65625 16.472656 C 22.722656 16.582031 22.804688 16.6875 22.878906 16.796875 C 22.945312 16.878906 23.027344 16.941406 23.105469 17.007812 C 23.371094 17.199219 23.691406 17.285156 23.996094 17.332031 C 24.445312 17.375 24.890625 17.3125 25.339844 17.296875 C 25.71875 17.285156 26.085938 17.148438 26.457031 17.0625 C 26.675781 17.011719 26.902344 17.007812 27.121094 16.945312 C 27.304688 16.878906 27.492188 16.800781 27.632812 16.648438 C 27.75 16.519531 27.867188 16.347656 27.839844 16.152344 Z M 27.839844 16.152344 " fill-opacity="1" fill-rule="nonzero"/></g><g clip-path="url(#6cb7caf155)"><path fill="#0e1111" d="M 27.957031 14.59375 C 27.917969 14.484375 27.820312 14.429688 27.746094 14.347656 C 27.867188 14.296875 27.941406 14.101562 27.808594 14.023438 C 27.730469 13.980469 27.636719 13.972656 27.550781 13.953125 C 27.519531 13.945312 27.484375 13.9375 27.453125 13.929688 C 27.550781 13.59375 27.28125 13.171875 26.96875 12.679688 C 26.695312 12.28125 26.449219 12.035156 25.992188 11.882812 C 25.78125 11.8125 25.554688 11.8125 25.339844 11.773438 C 24.566406 11.617188 24.03125 11.730469 23.355469 12.136719 C 23.21875 12.199219 23.101562 12.289062 22.976562 12.378906 C 22.832031 12.46875 22.714844 12.59375 22.613281 12.734375 C 22.523438 12.855469 22.421875 12.96875 22.34375 13.09375 C 22.195312 13.347656 22.09375 13.644531 22.101562 13.941406 C 22.101562 14.066406 22.164062 14.179688 22.269531 14.246094 C 22.261719 14.257812 22.257812 14.269531 22.253906 14.28125 C 22.191406 14.25 22.101562 14.242188 22.050781 14.25 C 21.914062 14.273438 21.75 14.316406 21.671875 14.445312 C 21.574219 14.609375 21.652344 14.707031 21.808594 14.765625 C 21.710938 14.832031 21.617188 14.910156 21.554688 15.015625 C 21.460938 15.152344 21.480469 15.34375 21.667969 15.351562 C 21.828125 15.355469 21.980469 15.304688 22.132812 15.265625 C 22.085938 15.363281 22.050781 15.46875 22.007812 15.566406 C 21.96875 15.675781 21.855469 15.84375 21.972656 15.933594 C 22.011719 15.949219 22.050781 15.9375 22.085938 15.933594 C 22.144531 15.925781 22.199219 15.921875 22.253906 15.917969 C 22.007812 16.257812 22.226562 16.675781 22.550781 16.875 C 22.746094 16.992188 22.960938 17.0625 23.183594 17.097656 C 23.53125 17.15625 23.875 17.191406 24.230469 17.199219 C 24.640625 17.210938 25.054688 17.167969 25.460938 17.105469 C 25.765625 17.070312 26.074219 17.070312 26.375 17.019531 C 26.691406 16.96875 27.089844 16.792969 27.324219 16.566406 C 27.59375 16.320312 27.675781 15.90625 27.425781 15.613281 C 27.390625 15.582031 27.332031 15.519531 27.273438 15.480469 C 27.273438 15.46875 27.273438 15.453125 27.273438 15.441406 C 27.484375 15.402344 27.59375 15.207031 27.542969 14.992188 C 27.644531 14.988281 27.75 14.964844 27.832031 14.910156 C 27.917969 14.839844 27.992188 14.707031 27.957031 14.59375 Z M 24.605469 14.726562 C 24.609375 14.726562 24.613281 14.726562 24.617188 14.726562 C 24.613281 14.730469 24.609375 14.734375 24.605469 14.738281 C 24.605469 14.734375 24.605469 14.730469 24.605469 14.726562 Z M 23.734375 14.722656 C 23.734375 14.695312 23.734375 14.671875 23.730469 14.652344 C 23.753906 14.652344 23.773438 14.65625 23.796875 14.660156 C 23.773438 14.6875 23.75 14.710938 23.734375 14.722656 Z M 23.277344 14.699219 C 23.253906 14.671875 23.257812 14.632812 23.25 14.59375 C 23.289062 14.597656 23.324219 14.601562 23.363281 14.605469 C 23.371094 14.609375 23.378906 14.609375 23.390625 14.609375 C 23.351562 14.636719 23.316406 14.671875 23.277344 14.699219 Z M 23.015625 14.613281 C 23.019531 14.59375 23.019531 14.578125 23.019531 14.5625 C 23.03125 14.566406 23.046875 14.566406 23.058594 14.570312 C 23.042969 14.582031 23.027344 14.597656 23.015625 14.613281 Z M 22.4375 14.386719 C 22.4375 14.378906 22.433594 14.371094 22.433594 14.359375 C 22.4375 14.363281 22.441406 14.367188 22.445312 14.367188 C 22.441406 14.375 22.441406 14.382812 22.4375 14.386719 Z M 23.414062 14.785156 C 23.417969 14.800781 23.421875 14.816406 23.425781 14.828125 C 23.414062 14.828125 23.398438 14.824219 23.382812 14.824219 C 23.394531 14.808594 23.40625 14.796875 23.414062 14.785156 Z M 23.539062 14.625 C 23.5625 14.628906 23.585938 14.632812 23.609375 14.636719 C 23.589844 14.652344 23.574219 14.675781 23.558594 14.703125 C 23.554688 14.671875 23.546875 14.644531 23.539062 14.625 Z M 23.597656 14.847656 C 23.597656 14.847656 23.597656 14.851562 23.597656 14.851562 C 23.597656 14.851562 23.597656 14.851562 23.59375 14.851562 C 23.597656 14.847656 23.597656 14.847656 23.597656 14.847656 Z M 23.839844 14.839844 C 23.835938 14.855469 23.835938 14.867188 23.835938 14.882812 C 23.820312 14.878906 23.808594 14.878906 23.792969 14.875 C 23.808594 14.863281 23.824219 14.851562 23.839844 14.839844 Z M 25.054688 14.699219 C 25.070312 14.699219 25.085938 14.695312 25.105469 14.695312 C 25.101562 14.703125 25.097656 14.710938 25.09375 14.71875 C 25.085938 14.746094 25.082031 14.789062 25.078125 14.832031 C 25.066406 14.832031 25.050781 14.832031 25.039062 14.835938 C 25.058594 14.796875 25.0625 14.742188 25.054688 14.699219 Z M 25.828125 14.695312 C 25.820312 14.664062 25.8125 14.636719 25.804688 14.617188 C 25.835938 14.613281 25.871094 14.609375 25.902344 14.609375 C 25.875 14.632812 25.855469 14.667969 25.828125 14.695312 Z M 25.527344 14.6875 C 25.523438 14.671875 25.515625 14.660156 25.511719 14.644531 C 25.527344 14.644531 25.542969 14.640625 25.558594 14.640625 C 25.546875 14.65625 25.535156 14.671875 25.527344 14.6875 Z M 25.640625 14.804688 C 25.644531 14.808594 25.644531 14.8125 25.644531 14.816406 C 25.640625 14.816406 25.636719 14.816406 25.632812 14.816406 C 25.636719 14.8125 25.640625 14.808594 25.640625 14.804688 Z M 26.003906 14.734375 C 26.027344 14.699219 26.03125 14.632812 26.011719 14.597656 C 26.058594 14.597656 26.101562 14.59375 26.148438 14.585938 C 26.152344 14.597656 26.160156 14.609375 26.164062 14.617188 C 26.183594 14.667969 26.191406 14.722656 26.203125 14.773438 C 26.152344 14.78125 26.101562 14.792969 26.046875 14.796875 C 26.015625 14.800781 25.984375 14.804688 25.953125 14.808594 C 25.972656 14.78125 25.988281 14.757812 26.003906 14.734375 Z M 26.570312 14.628906 C 26.558594 14.59375 26.546875 14.5625 26.539062 14.527344 C 26.585938 14.515625 26.636719 14.5 26.683594 14.484375 C 26.691406 14.480469 26.699219 14.480469 26.707031 14.476562 C 26.707031 14.523438 26.71875 14.574219 26.742188 14.632812 C 26.691406 14.648438 26.636719 14.664062 26.582031 14.679688 C 26.582031 14.660156 26.578125 14.644531 26.570312 14.628906 Z M 22.648438 12.980469 C 22.894531 12.648438 23.210938 12.363281 23.589844 12.207031 C 23.820312 12.117188 24.066406 12.085938 24.308594 12.0625 C 24.535156 12.035156 24.761719 11.996094 24.992188 12 C 25.15625 11.992188 25.316406 12.042969 25.472656 12.089844 C 25.746094 12.15625 26.007812 12.265625 26.273438 12.363281 C 26.5 12.441406 26.691406 12.589844 26.851562 12.769531 C 27.023438 12.988281 27.132812 13.246094 27.222656 13.511719 C 27.355469 13.832031 27.320312 13.890625 27.027344 14.042969 C 26.722656 14.214844 26.398438 14.328125 26.0625 14.410156 C 25.574219 14.542969 25.066406 14.402344 24.574219 14.394531 C 24.15625 14.390625 23.734375 14.425781 23.328125 14.3125 C 22.964844 14.242188 22.59375 14.164062 22.277344 13.964844 C 22.242188 13.601562 22.421875 13.25 22.648438 12.980469 Z M 22.300781 15.285156 C 22.308594 15.269531 22.316406 15.25 22.320312 15.230469 C 22.320312 15.230469 22.324219 15.230469 22.324219 15.230469 C 22.683594 15.175781 22.617188 15.648438 23.03125 15.53125 C 23.125 15.515625 23.195312 15.449219 23.277344 15.410156 C 23.46875 15.351562 23.605469 15.472656 23.769531 15.535156 C 23.859375 15.5625 23.953125 15.5625 24.046875 15.554688 C 24.039062 15.558594 24.03125 15.558594 24.019531 15.5625 C 23.953125 15.574219 23.886719 15.582031 23.816406 15.589844 C 23.769531 15.558594 23.71875 15.570312 23.664062 15.597656 C 23.558594 15.601562 23.449219 15.605469 23.34375 15.613281 C 23.246094 15.621094 23.148438 15.628906 23.050781 15.632812 C 23.027344 15.625 23.003906 15.628906 22.980469 15.636719 C 22.703125 15.652344 22.421875 15.660156 22.144531 15.671875 C 22.203125 15.546875 22.246094 15.414062 22.300781 15.285156 Z M 26.988281 15.515625 C 26.960938 15.527344 26.929688 15.539062 26.898438 15.550781 C 26.898438 15.550781 26.898438 15.546875 26.898438 15.546875 C 26.917969 15.511719 26.914062 15.46875 26.902344 15.429688 C 26.929688 15.4375 26.957031 15.441406 26.988281 15.445312 C 26.984375 15.46875 26.984375 15.492188 26.988281 15.515625 Z M 24.558594 15.746094 C 24.570312 15.746094 24.578125 15.742188 24.589844 15.742188 C 24.582031 15.753906 24.574219 15.765625 24.566406 15.777344 C 24.5625 15.765625 24.5625 15.757812 24.558594 15.746094 Z M 24.808594 15.699219 C 24.808594 15.699219 24.808594 15.699219 24.808594 15.703125 C 24.808594 15.699219 24.808594 15.699219 24.808594 15.699219 Z M 25.160156 15.644531 C 25.15625 15.636719 25.152344 15.628906 25.148438 15.621094 C 25.160156 15.617188 25.171875 15.613281 25.183594 15.613281 C 25.175781 15.625 25.167969 15.636719 25.160156 15.644531 Z M 25.445312 15.570312 C 25.449219 15.570312 25.453125 15.570312 25.457031 15.570312 C 25.453125 15.574219 25.453125 15.578125 25.449219 15.578125 C 25.449219 15.578125 25.449219 15.574219 25.445312 15.570312 Z M 24.28125 15.773438 C 24.292969 15.773438 24.304688 15.769531 24.316406 15.769531 C 24.3125 15.78125 24.304688 15.789062 24.296875 15.800781 C 24.292969 15.792969 24.285156 15.78125 24.28125 15.773438 Z M 22.902344 15.875 C 22.910156 15.878906 22.914062 15.882812 22.921875 15.882812 C 22.894531 15.882812 22.867188 15.882812 22.835938 15.882812 C 22.859375 15.882812 22.878906 15.878906 22.902344 15.875 Z M 23.308594 15.914062 C 23.289062 15.914062 23.265625 15.914062 23.246094 15.910156 C 23.265625 15.898438 23.285156 15.894531 23.308594 15.914062 Z M 23.59375 15.878906 C 23.625 15.863281 23.664062 15.8125 23.699219 15.828125 C 23.714844 15.855469 23.734375 15.882812 23.746094 15.902344 C 23.6875 15.902344 23.625 15.902344 23.5625 15.90625 C 23.574219 15.898438 23.582031 15.890625 23.59375 15.878906 Z M 24.085938 15.875 C 24.09375 15.886719 24.101562 15.902344 24.109375 15.917969 C 24.085938 15.917969 24.0625 15.914062 24.039062 15.914062 C 24.054688 15.902344 24.070312 15.890625 24.085938 15.875 Z M 24.421875 15.851562 C 24.429688 15.871094 24.4375 15.890625 24.445312 15.914062 C 24.425781 15.914062 24.402344 15.914062 24.382812 15.917969 C 24.398438 15.894531 24.410156 15.871094 24.421875 15.851562 Z M 24.671875 15.84375 C 24.671875 15.859375 24.679688 15.875 24.683594 15.886719 C 24.664062 15.890625 24.644531 15.890625 24.628906 15.894531 C 24.644531 15.875 24.65625 15.859375 24.671875 15.84375 Z M 24.941406 15.796875 C 24.945312 15.816406 24.953125 15.835938 24.957031 15.851562 C 24.933594 15.855469 24.90625 15.859375 24.878906 15.863281 C 24.902344 15.839844 24.925781 15.816406 24.941406 15.796875 Z M 26.578125 15.644531 C 26.554688 15.648438 26.53125 15.65625 26.507812 15.660156 C 26.523438 15.632812 26.535156 15.609375 26.542969 15.585938 C 26.554688 15.609375 26.566406 15.628906 26.578125 15.644531 Z M 26.796875 15.582031 C 26.789062 15.585938 26.777344 15.589844 26.769531 15.589844 C 26.777344 15.582031 26.785156 15.570312 26.792969 15.558594 C 26.792969 15.570312 26.792969 15.578125 26.796875 15.582031 Z M 26.710938 15.460938 C 26.703125 15.433594 26.695312 15.410156 26.683594 15.390625 C 26.710938 15.394531 26.742188 15.398438 26.769531 15.402344 C 26.746094 15.421875 26.726562 15.445312 26.710938 15.460938 Z M 26.398438 15.492188 C 26.390625 15.472656 26.382812 15.453125 26.375 15.4375 C 26.402344 15.414062 26.433594 15.390625 26.484375 15.382812 C 26.453125 15.414062 26.421875 15.453125 26.398438 15.492188 Z M 25.71875 15.625 C 25.699219 15.582031 25.703125 15.535156 25.6875 15.492188 C 25.722656 15.503906 25.753906 15.515625 25.785156 15.527344 C 25.761719 15.558594 25.738281 15.589844 25.71875 15.625 Z M 24.210938 15.523438 C 24.253906 15.507812 24.300781 15.484375 24.34375 15.464844 C 24.390625 15.457031 24.4375 15.457031 24.484375 15.464844 C 24.390625 15.484375 24.300781 15.503906 24.210938 15.523438 Z M 27.335938 16.375 C 27.144531 16.558594 26.871094 16.578125 26.628906 16.65625 C 26.359375 16.703125 26.089844 16.777344 25.820312 16.828125 C 25.445312 16.871094 25.070312 16.84375 24.695312 16.894531 C 24.328125 16.941406 23.953125 17.054688 23.582031 16.957031 C 23.269531 16.855469 22.933594 16.8125 22.652344 16.625 C 22.511719 16.519531 22.339844 16.324219 22.34375 16.136719 C 22.339844 16.097656 22.359375 16.066406 22.378906 16.039062 C 22.40625 16.085938 22.453125 16.121094 22.523438 16.132812 C 22.65625 16.160156 22.792969 16.144531 22.925781 16.152344 C 23.011719 16.160156 23.101562 16.160156 23.1875 16.164062 C 23.261719 16.167969 23.339844 16.164062 23.414062 16.15625 C 23.570312 16.140625 23.722656 16.15625 23.878906 16.144531 C 24.132812 16.125 24.382812 16.09375 24.636719 16.074219 C 24.867188 16.074219 25.09375 16.085938 25.320312 16.082031 C 25.574219 16.0625 25.832031 16.03125 26.082031 15.980469 C 26.207031 15.949219 26.332031 15.929688 26.460938 15.90625 C 26.554688 15.890625 26.648438 15.894531 26.742188 15.867188 C 26.902344 15.84375 27.0625 15.808594 27.164062 15.714844 C 27.234375 15.753906 27.304688 15.792969 27.359375 15.851562 C 27.492188 16 27.496094 16.246094 27.335938 16.375 Z M 27.628906 14.742188 C 27.542969 14.726562 27.445312 14.730469 27.390625 14.808594 C 27.316406 14.902344 27.320312 15.027344 27.335938 15.140625 C 27.117188 15.191406 26.890625 15.121094 26.667969 15.128906 C 26.453125 15.132812 26.402344 15.1875 26.269531 15.347656 C 26.234375 15.382812 26.183594 15.390625 26.136719 15.398438 C 26.039062 15.429688 25.9375 15.417969 25.847656 15.371094 C 25.667969 15.269531 25.457031 15.191406 25.253906 15.273438 C 25.183594 15.300781 25.113281 15.359375 25.03125 15.328125 C 24.882812 15.257812 24.746094 15.152344 24.574219 15.148438 C 24.441406 15.128906 24.328125 15.199219 24.21875 15.269531 C 24.082031 15.324219 23.917969 15.335938 23.792969 15.246094 C 23.640625 15.140625 23.535156 15.066406 23.339844 15.105469 C 23.242188 15.121094 23.171875 15.199219 23.082031 15.230469 C 22.953125 15.285156 22.863281 15.246094 22.765625 15.15625 C 22.5625 14.9375 22.253906 15.074219 22.007812 15.117188 C 21.90625 15.121094 21.785156 15.164062 21.691406 15.105469 C 21.765625 14.996094 21.894531 14.953125 21.992188 14.871094 C 22.066406 14.804688 22.128906 14.65625 22.035156 14.582031 C 22.003906 14.558594 21.972656 14.542969 21.9375 14.523438 C 21.996094 14.507812 22.054688 14.503906 22.109375 14.515625 C 22.148438 14.527344 22.179688 14.558594 22.21875 14.550781 C 22.230469 14.546875 22.242188 14.539062 22.25 14.535156 C 22.257812 14.609375 22.277344 14.679688 22.324219 14.738281 C 22.421875 14.835938 22.546875 14.902344 22.675781 14.949219 C 22.925781 15.011719 23.179688 15.058594 23.433594 15.082031 C 23.65625 15.097656 23.875 15.085938 24.097656 15.085938 C 24.347656 15.082031 24.597656 15.101562 24.84375 15.121094 C 25.238281 15.160156 25.628906 15.105469 26.019531 15.039062 C 26.261719 15.003906 26.507812 14.996094 26.746094 14.941406 C 26.917969 14.894531 27.085938 14.824219 27.238281 14.730469 C 27.347656 14.648438 27.40625 14.492188 27.378906 14.355469 C 27.375 14.324219 27.347656 14.242188 27.3125 14.195312 C 27.332031 14.191406 27.347656 14.191406 27.363281 14.195312 C 27.480469 14.207031 27.59375 14.191406 27.710938 14.214844 C 27.652344 14.230469 27.597656 14.269531 27.585938 14.335938 C 27.554688 14.453125 27.804688 14.570312 27.832031 14.703125 C 27.78125 14.753906 27.691406 14.738281 27.628906 14.742188 Z M 23.773438 12.65625 C 23.84375 12.597656 23.902344 12.503906 23.996094 12.476562 C 24.101562 12.484375 24.082031 12.652344 24.027344 12.710938 C 23.988281 12.742188 23.949219 12.769531 23.917969 12.808594 C 23.875 12.839844 23.84375 12.910156 23.785156 12.90625 C 23.695312 12.867188 23.71875 12.71875 23.773438 12.65625 Z M 24.636719 12.300781 C 25.023438 12.429688 24.8125 12.78125 24.714844 12.667969 C 24.679688 12.617188 24.621094 12.589844 24.566406 12.5625 C 24.414062 12.5625 24.488281 12.230469 24.636719 12.300781 Z M 25.082031 12.902344 C 25.023438 12.820312 25.074219 12.710938 25.125 12.636719 C 25.160156 12.59375 25.1875 12.503906 25.257812 12.527344 C 25.355469 12.605469 25.277344 12.753906 25.21875 12.832031 C 25.195312 12.886719 25.136719 12.96875 25.082031 12.902344 Z M 25.710938 12.847656 C 25.628906 12.734375 25.84375 12.4375 25.90625 12.636719 C 25.917969 12.703125 25.898438 12.789062 25.839844 12.824219 C 25.8125 12.871094 25.746094 12.914062 25.710938 12.847656 Z M 24.238281 12.957031 C 24.242188 12.925781 24.25 12.890625 24.269531 12.863281 C 24.28125 12.84375 24.304688 12.820312 24.328125 12.820312 C 24.386719 12.820312 24.398438 12.898438 24.394531 12.945312 C 24.394531 12.976562 24.382812 13.011719 24.363281 13.039062 C 24.351562 13.058594 24.328125 13.082031 24.304688 13.082031 C 24.246094 13.082031 24.234375 13.003906 24.238281 12.957031 Z M 25.957031 12.925781 C 25.960938 12.890625 25.972656 12.855469 25.992188 12.828125 C 26.003906 12.8125 26.023438 12.789062 26.050781 12.789062 C 26.109375 12.789062 26.121094 12.863281 26.117188 12.910156 C 26.113281 12.945312 26.105469 12.980469 26.085938 13.007812 C 26.074219 13.023438 26.050781 13.046875 26.027344 13.046875 C 25.96875 13.046875 25.953125 12.972656 25.957031 12.925781 Z M 25.957031 12.925781 " fill-opacity="1" fill-rule="nonzero"/></g><g clip-path="url(#b0f20a21e8)"><path fill="#000000" d="M 7.164062 14.148438 C 7.164062 14.4375 7.402344 14.671875 7.699219 14.671875 C 7.996094 14.671875 8.234375 14.4375 8.234375 14.148438 C 8.234375 13.859375 7.996094 13.625 7.699219 13.625 C 7.402344 13.625 7.164062 13.859375 7.164062 14.148438 Z M 5.578125 14.148438 C 5.578125 14.4375 5.816406 14.671875 6.113281 14.671875 C 6.410156 14.671875 6.648438 14.4375 6.648438 14.148438 C 6.648438 13.859375 6.410156 13.625 6.113281 13.625 C 5.816406 13.625 5.578125 13.859375 5.578125 14.148438 Z M 3.976562 14.148438 C 3.976562 14.4375 4.214844 14.671875 4.511719 14.671875 C 4.808594 14.671875 5.046875 14.4375 5.046875 14.148438 C 5.046875 13.859375 4.808594 13.625 4.511719 13.625 C 4.214844 13.625 3.976562 13.859375 3.976562 14.148438 Z M 5.890625 17.621094 C 5.605469 17.589844 5.328125 17.523438 5.0625 17.429688 C 4.984375 17.402344 4.894531 17.402344 4.8125 17.429688 L 2.71875 18.167969 L 3.363281 16.445312 C 3.40625 16.335938 3.390625 16.214844 3.320312 16.117188 C 2.804688 15.398438 2.582031 14.519531 2.6875 13.648438 C 2.804688 12.699219 3.292969 11.855469 4.066406 11.265625 C 4.835938 10.675781 5.792969 10.414062 6.765625 10.527344 C 7.40625 10.601562 8.011719 10.839844 8.523438 11.214844 L 8.960938 10.644531 C 8.347656 10.195312 7.621094 9.910156 6.855469 9.820312 C 5.6875 9.683594 4.539062 9.996094 3.613281 10.703125 C 2.691406 11.410156 2.105469 12.425781 1.964844 13.5625 C 1.839844 14.546875 2.074219 15.535156 2.613281 16.371094 L 1.761719 18.640625 C 1.714844 18.769531 1.746094 18.917969 1.847656 19.015625 C 1.917969 19.082031 2.007812 19.121094 2.105469 19.121094 C 2.148438 19.121094 2.1875 19.113281 2.230469 19.097656 L 4.941406 18.140625 C 5.21875 18.234375 5.507812 18.296875 5.800781 18.328125 C 5.980469 18.351562 6.15625 18.359375 6.332031 18.359375 C 7.46875 18.359375 8.558594 17.933594 9.386719 17.152344 L 8.878906 16.640625 C 8.082031 17.394531 6.992188 17.753906 5.890625 17.621094 Z M 20.558594 13.433594 L 20.558594 12.839844 L 19.4375 12.839844 L 19.4375 11.554688 L 18.722656 11.78125 L 18.722656 12.839844 L 17.957031 12.839844 L 17.957031 13.433594 L 18.722656 13.433594 L 18.722656 16.007812 C 18.722656 16.855469 19.113281 17.277344 19.894531 17.277344 C 20.167969 17.277344 20.390625 17.234375 20.558594 17.144531 L 20.558594 16.550781 C 20.429688 16.644531 20.273438 16.695312 20.09375 16.695312 C 19.859375 16.695312 19.691406 16.632812 19.589844 16.507812 C 19.488281 16.382812 19.4375 16.175781 19.4375 15.882812 L 19.4375 13.433594 Z M 16.96875 14.988281 L 15.894531 15.132812 C 15.5625 15.175781 15.3125 15.257812 15.144531 15.371094 C 14.976562 15.488281 14.890625 15.691406 14.890625 15.980469 C 14.890625 16.191406 14.96875 16.367188 15.125 16.5 C 15.28125 16.636719 15.484375 16.703125 15.746094 16.703125 C 16.097656 16.703125 16.390625 16.582031 16.621094 16.339844 C 16.851562 16.097656 16.96875 15.792969 16.96875 15.421875 Z M 17.683594 14.359375 L 17.683594 17.1875 L 16.96875 17.1875 L 16.96875 16.507812 L 16.949219 16.507812 C 16.640625 17.027344 16.183594 17.289062 15.578125 17.289062 C 15.136719 17.289062 14.789062 17.171875 14.535156 16.945312 C 14.285156 16.714844 14.160156 16.410156 14.160156 16.03125 C 14.160156 15.21875 14.652344 14.746094 15.632812 14.613281 L 16.96875 14.433594 C 16.96875 13.695312 16.660156 13.324219 16.050781 13.324219 C 15.511719 13.324219 15.027344 13.503906 14.59375 13.859375 L 14.59375 13.148438 C 15.035156 12.875 15.539062 12.738281 16.109375 12.738281 C 17.15625 12.738281 17.683594 13.28125 17.683594 14.359375 Z M 13.679688 14.507812 L 13.679688 17.1875 L 12.96875 17.1875 L 12.96875 14.683594 C 12.96875 13.777344 12.621094 13.324219 11.929688 13.324219 C 11.582031 13.324219 11.289062 13.457031 11.050781 13.71875 C 10.8125 13.980469 10.695312 14.316406 10.695312 14.726562 L 10.695312 17.1875 L 9.980469 17.1875 L 9.980469 10.753906 L 10.695312 10.753906 L 10.695312 13.5625 L 10.710938 13.5625 C 11.054688 13.011719 11.542969 12.738281 12.175781 12.738281 C 13.179688 12.738281 13.679688 13.328125 13.679688 14.507812 " fill-opacity="1" fill-rule="nonzero"/></g></svg>