<?xml version="1.0" encoding="iso-8859-1"?>
<!-- Uploaded to: SVG Repo, www.svgrepo.com, Generator: SVG Repo Mixer Tools -->
<svg fill="#000000" height="800px" width="800px" version="1.1" id="Layer_1" xmlns="http://www.w3.org/2000/svg" xmlns:xlink="http://www.w3.org/1999/xlink" 
	 viewBox="0 0 512 512" xml:space="preserve">
<g>
	<g>
		<path d="M47.075,378.435l15.283,91.717C66.402,494.402,87.174,512,111.761,512h288.479c24.587,0,45.359-17.598,49.402-41.848
			l15.283-91.717H47.075z"/>
	</g>
</g>
<g>
	<g>
		<path d="M495.304,278.261H16.696C7.479,278.261,0,285.739,0,294.957c0,9.217,7.479,16.696,16.696,16.696h19.25l5.565,33.391
			h428.978l5.565-33.391h19.25c9.217,0,16.696-7.479,16.696-16.696C512,285.739,504.521,278.261,495.304,278.261z"/>
	</g>
</g>
<g>
	<g>
		<path d="M497.086,85.609c18.642-17.892,20.523-50.389,0.119-70.815c-19.501-19.5-51.207-19.478-70.685-0.022l-43.8,43.671
			C351.146,21.545,305.097,0,256,0c-59.185,0-113.489,31.195-143.576,81.924C53.296,96.561,11.13,149.898,11.13,211.478
			c0,11.44,1.584,22.604,4.356,33.391h481.026c2.771-10.788,4.356-21.951,4.356-33.391c0-34.886-13.462-67.585-37.256-92.297
			L497.086,85.609z M353.597,134.64c6.8-6.777,87.156-86.9,96.522-96.238c6.478-6.478,17.011-6.478,23.467,0
			c6.878,6.86,5.948,17.818,0.315,23.185c-0.109,0.098-0.217,0.207-0.326,0.304l-98.109,98.402
			C369.694,150.565,362.303,141.891,353.597,134.64z"/>
	</g>
</g>
</svg>