<svg xmlns="http://www.w3.org/2000/svg" xmlns:xlink="http://www.w3.org/1999/xlink" width="1920" zoomAndPan="magnify" viewBox="0 0 1440 449.999984" height="600" preserveAspectRatio="xMidYMid meet" version="1.0"><defs><clipPath id="f83db580dd"><path d="M 1 155 L 1440 155 L 1440 449.855469 L 1 449.855469 Z M 1 155 " clip-rule="nonzero"/></clipPath></defs><g clip-path="url(#f83db580dd)"><path fill="#000000" d="M 1449.066406 448.816406 C 991.359375 449.945312 547.730469 447.683594 90.023438 448.816406 C 56.140625 448.898438 1.207031 448.816406 1.207031 448.816406 L 1.207031 261.707031 C 1.207031 241.273438 2.402344 236.480469 9.242188 224.113281 C 16.082031 211.75 40.863281 204.027344 54.859375 206.039062 C 73.730469 208.753906 83.382812 229.472656 90.890625 246.996094 C 98.394531 264.539062 111.742188 284.390625 130.699219 282.34375 C 156.609375 279.53125 162.816406 239.507812 187.863281 232.316406 C 223.941406 221.949219 252.851562 288.1875 286.683594 271.894531 C 304.839844 263.15625 307.152344 235.5625 325.226562 226.660156 C 346.394531 216.226562 368.363281 238.542969 381.558594 258.128906 C 394.757812 277.71875 417.007812 299.867188 438.007812 289.117188 C 458.695312 278.53125 458.296875 243.320312 480.347656 236.0625 C 512.78125 225.394531 527.3125 287.804688 561.425781 288.933594 C 587.105469 289.785156 598.304688 256.167969 596.375 230.539062 C 594.445312 204.910156 595.675781 187.25 614.414062 169.675781 C 634.769531 150.605469 663.609375 151.570312 680.949219 171.390625 C 699.304688 192.378906 705.78125 221.101562 719.542969 245.367188 C 733.289062 269.628906 759.335938 291.613281 786.476562 285.207031 C 807.414062 280.265625 822.691406 259.710938 844.058594 257.332031 C 866.226562 254.867188 884.847656 272.527344 901.175781 287.71875 C 917.5 302.914062 940.015625 317.808594 960.554688 309.121094 C 984.851562 298.851562 989.328125 262.039062 1014.042969 252.804688 C 1052.933594 238.257812 1079.328125 305.109375 1120.851562 305.410156 C 1154.101562 305.660156 1177.28125 262.441406 1210.269531 266.652344 C 1235.78125 269.914062 1251.355469 300.601562 1276.953125 303.0625 C 1302.964844 305.578125 1322.933594 277.785156 1348.929688 275.023438 C 1371.597656 272.609375 1391.082031 289.417969 1409.804688 302.414062 C 1428.527344 315.410156 1432.054688 324.863281 1449.046875 309.671875 C 1447.617188 360.546875 1450.429688 399.804688 1449.046875 448.832031 Z M 1449.066406 448.816406 " fill-opacity="1" fill-rule="nonzero"/></g></svg>